<svg xmlns="http://www.w3.org/2000/svg" width="142" height="40" viewBox="0 0 142 40" fill="none">
  <g clip-path="url(#clip0_2008_980)">
    <path d="M16.528 33.8886V22.7775L22.0835 22.784H27.6391V28.3331C24.5709 28.3331 22.0835 30.8204 22.0835 33.8886H16.528Z" fill="#FA7921"/>
    <path d="M19.3058 6.11084V12.7723C19.3058 14.3297 19.3058 15.1083 19.0026 15.7029C18.7359 16.2259 18.3103 16.6509 17.7871 16.917C17.1922 17.2195 16.4135 17.2186 14.8561 17.2168L13.7502 17.2155H8.19466V11.6664C11.2629 11.6664 13.7502 9.17909 13.7502 6.11084H19.3058Z" fill="#FA7921"/>
    <path d="M10.9724 31.1108V27.2271C10.9724 25.6698 10.9724 24.8911 10.6692 24.2966C10.4025 23.7736 9.97701 23.3486 9.45372 23.0825C8.85882 22.78 8.08015 22.7809 6.5228 22.7827L5.41688 22.784H-0.138672V28.3331H2.63911C4.17323 28.3331 5.41688 29.5767 5.41688 31.1108H10.9724Z" fill="#FA7921"/>
    <path d="M33.1943 22.7778H33.2811C33.9091 22.7778 34.2617 22.7632 34.6446 22.2878C35.0428 21.7971 35.436 20.9076 35.6504 19.6194C35.8649 18.3312 35.9721 16.5063 35.9721 14.1446V11.6667H47.0832V22.7778H49.2534V28.3334H46.1284V25.5556H36.4061V28.3334H33.1943V22.7778ZM43.5242 22.7778V14.1971H39.4897V14.9957C39.4897 18.8756 38.9919 21.3056 37.9963 22.7778H43.5242Z" fill="#222222"/>
    <path d="M99.5137 14.4206H102.868V18.1472H104.155C105.702 18.1472 106.851 18.2315 107.601 18.4002C108.367 18.5689 108.888 18.868 109.164 19.2974C109.455 19.7268 109.6 20.3862 109.6 21.2757V22.5869C109.6 23.645 109.164 24.4041 108.29 24.8642C107.417 25.3243 106.062 25.5543 104.224 25.5543H99.5137V14.4206ZM104.063 23.461C104.676 23.461 105.127 23.4226 105.418 23.346C105.709 23.254 105.901 23.1159 105.993 22.9319C106.085 22.7479 106.131 22.4718 106.131 22.1038V21.4827C106.131 21.1453 106.069 20.8923 105.947 20.7236C105.84 20.5395 105.641 20.4169 105.35 20.3555C105.074 20.2942 104.66 20.2635 104.109 20.2635H102.822V23.461H104.063Z" fill="#222222"/>
    <path d="M94.3201 25.7291C93.7381 25.7291 93.2786 25.7138 92.9416 25.6831C92.6046 25.6678 92.191 25.6294 91.7009 25.5681C91.2107 25.5067 90.8048 25.3994 90.4832 25.246C90.1768 25.0927 89.8552 24.8627 89.5182 24.5559C88.8902 24.0345 88.5762 23.1451 88.5762 21.8875L88.5762 18.239C88.5762 17.2269 88.8059 16.4638 89.2654 15.789C89.4339 15.5436 89.679 15.3213 90.0007 15.1219C90.3376 14.9072 90.6746 14.7385 91.0116 14.6158C91.2873 14.5238 91.6549 14.4471 92.1145 14.3858C92.574 14.3245 92.9799 14.2861 93.3322 14.2708H94.5499C95.4077 14.2708 96.5701 14.4088 97.964 14.6848V16.8128C96.3863 16.4448 95.1396 16.3411 94.2972 16.3411C92.7501 16.3411 91.9766 16.7821 91.9766 17.825V21.8645C91.9766 23.0454 92.8267 23.6358 94.5269 23.6358C95.354 23.6358 96.5777 23.4671 98.1248 23.1297V25.3381C96.7309 25.5988 95.4383 25.7291 94.3201 25.7291Z" fill="#222222"/>
    <path d="M76.0762 14.4441H79.3748V21.6893L83.8019 14.4441H87.1873V25.5552H83.8019V18.0778L79.3748 25.5552H76.0762L76.0762 14.4441Z" fill="#222222"/>
    <path d="M63.7729 25.7632C63.4359 25.7632 63.0376 25.7172 62.5781 25.6251L62.5781 23.1394C62.7619 23.1701 62.9534 23.1854 63.1525 23.1854C63.7193 23.1854 64.1788 23.0091 64.5311 22.6564C64.8834 22.3036 65.1514 21.6135 65.3352 20.5861C65.5344 19.5586 65.6339 18.071 65.6339 16.1234V14.4441L74.3403 14.4441V25.5791H70.9549V16.5514H68.437V16.8595C68.437 19.2365 68.2302 21.0768 67.8166 22.3803C67.4031 23.6839 66.8593 24.5733 66.1853 25.0487C65.5114 25.5241 64.7072 25.7632 63.7729 25.7632Z" fill="#222222"/>
    <path d="M56.5474 25.7842C52.6108 25.7842 50.6426 24.5803 50.6426 22.1726V18.17C50.6426 16.7745 51.0868 15.8427 51.9752 15.2139C52.8789 14.5852 54.2651 14.2708 56.1338 14.2708C57.8953 14.2708 59.1819 14.5775 59.9937 15.1909C60.8209 15.789 61.2344 16.7285 61.2344 18.17V20.868H54.028V21.8966C54.028 22.5407 54.2578 23.0007 54.7173 23.2768C55.1768 23.5528 55.9959 23.6909 57.1907 23.6909C58.2935 23.6909 59.5939 23.5298 60.9724 23.2078V25.3471C59.6092 25.6385 58.0944 25.7842 56.5474 25.7842ZM58.021 18.9583V17.3715C58.021 17.0034 57.8679 16.7274 57.5615 16.5434C57.2705 16.3593 56.7924 16.2673 56.0879 16.2673C55.276 16.2673 54.7402 16.3593 54.4645 16.5434C54.1735 16.7427 54.028 17.0188 54.028 17.3715V18.9583H58.021Z" fill="#222222"/>
  </g>
  <defs>
    <clipPath id="clip0_2008_980">
      <rect width="142" height="40" fill="white"/>
    </clipPath>
  </defs>
</svg>
