<svg xmlns="http://www.w3.org/2000/svg" width="32" height="32" viewBox="0 0 32 32" fill="none">
  <path d="M4.38327 18.2257L5.82051 13.2632C5.83977 13.1967 5.84125 13.1263 5.82481 13.0591L4.01132 5.64026C3.99339 5.56691 3.99682 5.48996 4.02119 5.41849L5.09572 2.26817C5.16798 2.05631 5.4014 1.94647 5.61069 2.02584L12.7656 4.73884C12.8104 4.75584 12.858 4.76456 12.9059 4.76456H19.0941C19.142 4.76456 19.1896 4.75584 19.2344 4.73884L26.3893 2.02584C26.5986 1.94647 26.832 2.05631 26.9043 2.26817L27.9788 5.41849C28.0032 5.48996 28.0066 5.56691 27.9887 5.64026L26.1752 13.0591C26.1588 13.1263 26.1602 13.1967 26.1795 13.2632L27.6167 18.2257C27.6375 18.2976 27.6376 18.3739 27.6168 18.4457L26.2856 23.0539C26.2259 23.2603 26.0126 23.3814 25.8048 23.3269L21.1782 22.1134C21.0678 22.0844 20.9501 22.1046 20.8556 22.1687L17.8536 24.2049C17.788 24.2493 17.7106 24.2731 17.6314 24.2731H14.3686C14.2894 24.2731 14.212 24.2493 14.1464 24.2049L11.1444 22.1687C11.0499 22.1046 10.9323 22.0844 10.8218 22.1134L6.19515 23.3269C5.98738 23.3814 5.77407 23.2603 5.71445 23.0539L4.38319 18.4457C4.36243 18.3739 4.36246 18.2976 4.38327 18.2257Z" fill="#631EE2"/>
  <path d="M4.56101 24.8955C4.35069 24.9507 4.13549 24.8515 4.03679 24.667C2.77017 26.0823 2 27.9512 2 30V32H30V30C30 27.9512 29.2298 26.0823 27.9632 24.667C27.8645 24.8515 27.6493 24.9507 27.439 24.8955L22.0413 23.4789C21.9124 23.4451 21.7752 23.4686 21.6649 23.5435L18.1625 25.9203C18.086 25.9723 17.9957 26 17.9033 26H14.0967C14.0043 26 13.914 25.9723 13.8375 25.9203L10.3351 23.5435C10.2248 23.4686 10.0876 23.4451 9.95873 23.4789L4.56101 24.8955Z" fill="#631EE2"/>
</svg>